<svg width="512" height="512" viewBox="0 0 512 512" fill="none" xmlns="http://www.w3.org/2000/svg">
  <defs>
    <linearGradient id="glow" x1="0%" y1="0%" x2="100%" y2="100%">
      <stop offset="0%" stop-color="#00F0FF" />
      <stop offset="100%" stop-color="#0070FF" />
    </linearGradient>
    <filter id="shadow">
      <feDropShadow dx="0" dy="0" stdDeviation="15" flood-color="#00F0FF" flood-opacity="0.5"/>
    </filter>
  </defs>

  <!-- Circular Background -->
  <circle cx="256" cy="256" r="240" fill="#0A0A0A" />
  
  <!-- Maid Headdress Arc -->
  <path d="M100 350C100 180 180 80 256 80C332 80 412 180 412 350" 
        stroke="url(#glow)" stroke-width="12" stroke-linecap="round" filter="url(#shadow)" />

  <!-- Lace Scallops (The 'Headdress' detail) -->
  <circle cx="125" cy="270" r="18" fill="url(#glow)" />
  <circle cx="165" cy="180" r="18" fill="url(#glow)" />
  <circle cx="256" cy="145" r="18" fill="url(#glow)" />
  <circle cx="347" cy="180" r="18" fill="url(#glow)" />
  <circle cx="387" cy="270" r="18" fill="url(#glow)" />

  <!-- Central Intelligence Node -->
  <circle cx="256" cy="300" r="60" stroke="url(#glow)" stroke-width="6" fill="#0A0A0A" filter="url(#shadow)" />
  
  <!-- Internal Circuit Pattern -->
  <circle cx="256" cy="300" r="15" fill="url(#glow)" />
  <path d="M256 240V270 M256 330V360 M196 300H226 M286 300H316" 
        stroke="url(#glow)" stroke-width="8" stroke-linecap="round" />
  
  <!-- Diagnostic Trace Lines -->
  <path d="M210 260L230 280 M302 260L282 280 M210 340L230 320 M302 340L282 320" 
        stroke="url(#glow)" stroke-width="4" stroke-linecap="round" opacity="0.6" />
</svg>
